# xmcd
#
# Track frame offsets: 
#        150
#        24898
#        46193
#        61766
#        76977
#        90438
#        111416
#        127477
#        132712
#        150647
#        170411
#        195873
#
# Disc length: 2813 seconds
#
# Revision: 0
# Processed by: cddbd v1.5.2PL0 Copyright (c) Steve Scherf et al.
# Submitted via: ExactAudioCopy v0.99pb5
#
DISCID=960afb0c
DTITLE=Dave Goodman - Side of the Road
DYEAR=2009
DGENRE=Blues
TTITLE0=The Night We Chased The Day
TTITLE1=Song For Jimmy
TTITLE2=If You Come With Me
TTITLE3=A Soldier's Blues
TTITLE4=Eastbound Prelude
TTITLE5=Eastbound Train
TTITLE6=Side Of The Road
TTITLE7=Übergang
TTITLE8=Alles Übergang
TTITLE9=Imagine
TTITLE10=Side Of The Road Reprise
TTITLE11=Whiskey On The Fire
EXTD=
EXTT0=
EXTT1=
EXTT2=
EXTT3=
EXTT4=
EXTT5=
EXTT6=
EXTT7=
EXTT8=
EXTT9=
EXTT10=
EXTT11=
PLAYORDER=
